<?xml version="1.0" standalone="no"?>
<!DOCTYPE svg PUBLIC "-//W3C//DTD SVG 20010904//EN"
 "http://www.w3.org/TR/2001/REC-SVG-20010904/DTD/svg10.dtd">
<svg version="1.0" xmlns="http://www.w3.org/2000/svg"
 width="130.000000pt" height="107.000000pt" viewBox="0 0 130.000000 107.000000"
 preserveAspectRatio="xMidYMid meet">

<g transform="translate(0.000000,107.000000) scale(0.100000,-0.100000)"
fill="#000000" stroke="none">
<path d="M986 989 c-16 -4 -45 -23 -65 -42 -108 -102 -149 -116 -260 -87 -144
37 -241 23 -327 -46 -79 -63 -138 -214 -137 -349 1 -105 28 -177 93 -248 163
-178 468 -148 686 68 92 91 141 177 174 309 22 87 26 218 9 279 -23 84 -102
137 -173 116z m74 -44 c50 -26 70 -80 70 -187 0 -234 -123 -448 -316 -550
-259 -137 -502 -64 -571 172 -31 107 12 287 89 375 23 27 60 56 83 66 50 23
160 25 229 4 65 -20 140 -19 183 2 19 9 58 37 86 63 82 74 98 80 147 55z"/>
<path d="M1005 868 c-11 -7 -43 -30 -71 -53 -85 -69 -157 -78 -326 -41 -71 16
-81 16 -131 2 -91 -27 -153 -112 -177 -247 -19 -103 15 -209 87 -268 175 -145
507 -22 629 233 43 89 57 159 52 262 -2 67 -7 87 -23 103 -16 16 -24 18 -40 9z
m-424 -317 c20 -20 29 -39 29 -61 0 -42 -47 -90 -88 -90 -37 0 -78 31 -86 66
-14 55 33 113 92 114 13 0 37 -13 53 -29z"/>
</g>
</svg>
